PathFileType	4	(X/Y/Z)	C:/Users/opensim2020/Desktop/walking_exp_matlab/subject01_walking05_straight_02.trc	
DataRate	CameraRate	NumFrames	NumMarkers	Units	OrigDataRate	OrigDataStartFrame	OrigNumFrames	
100.00	100.00	4	43	mm	100.00	1527	205	
Frame#	Time	LFHD			RFHD			LBHD			RBHD			C7			T10			CLAV			STRN			RBAK			LSHO			LUPA			LELB			LFRM			LWRA			LWRB			LFIN			RSHO			RUPA			RELB			RFRM			RWRA			RWRB			RFIN			LASI			RASI			LPSI			RPSI			LTHI			LKNE			LTIB			LANK			LHEE			LTOE			RTHI			RKNE			RTIB			RANK			RHEE			RTOE			*39			*40			*41			*42			
		X1	Y1	Z1	X2	Y2	Z2	X3	Y3	Z3	X4	Y4	Z4	X5	Y5	Z5	X6	Y6	Z6	X7	Y7	Z7	X8	Y8	Z8	X9	Y9	Z9	X10	Y10	Z10	X11	Y11	Z11	X12	Y12	Z12	X13	Y13	Z13	X14	Y14	Z14	X15	Y15	Z15	X16	Y16	Z16	X17	Y17	Z17	X18	Y18	Z18	X19	Y19	Z19	X20	Y20	Z20	X21	Y21	Z21	X22	Y22	Z22	X23	Y23	Z23	X24	Y24	Z24	X25	Y25	Z25	X26	Y26	Z26	X27	Y27	Z27	X28	Y28	Z28	X29	Y29	Z29	X30	Y30	Z30	X31	Y31	Z31	X32	Y32	Z32	X33	Y33	Z33	X34	Y34	Z34	X35	Y35	Z35	X36	Y36	Z36	X37	Y37	Z37	X38	Y38	Z38	X39	Y39	Z39	X40	Y40	Z40	X41	Y41	Z41	X42	Y42	Z42	X43	Y43	Z43	

52	0.510	1509.07715	601.74323	1662.69739	1396.54480	584.50873	1671.25500	1495.49536	711.66510	1604.54419	1376.34644	697.35364	1612.11426	1452.97888	739.46417	1421.58972	1441.12317	771.34595	1127.55945	1451.69031	592.03052	1355.47937	1456.41016	547.69965	1202.76477	1375.46985	789.80481	1225.07275	1612.68677	657.90771	1383.16833	1704.66577	681.57745	1205.09021	1726.90186	676.27148	1053.24878	1779.01538	593.50708	984.81073	1799.19080	463.41769	939.61700	1813.59509	509.57446	903.75641	1847.95874	436.44714	880.71417	1298.97437	657.99402	1384.23145	1203.63391	735.65356	1188.55713	1201.59814	747.96173	1065.14148	1169.28687	740.65540	945.76691	1183.89075	679.65356	817.06104	1146.10974	724.31439	826.07806	1148.19470	701.70709	742.98615	1553.89758	603.64844	919.55914	1337.63330	585.77600	927.78802	1482.75586	785.53076	935.52234	1337.57983	771.42328	933.25323	1606.38245	703.28058	596.75092	1596.29517	748.53589	466.68936	1603.38440	874.63147	322.23056	1557.24561	992.97510	131.57733	1502.03918	1040.76636	126.70784	1555.94080	875.47681	36.75928	1273.61072	570.46857	603.11829	1304.58887	517.01782	457.45865	1297.94873	529.51129	282.43814	1341.13318	504.09988	76.04482	1391.68726	547.28333	35.22792	1345.86243	361.23099	47.11225	1418.72095	602.22614	1702.51624	-3101.83813	1973.14001	1023.35406	-3140.50269	2012.46484	1021.95514			 
53	0.520	1506.93481	591.76331	1663.28174	1394.47827	574.08246	1671.91785	1492.82129	701.79047	1605.59412	1373.72058	686.91431	1613.25317	1450.38098	729.06097	1422.27454	1439.12109	760.61725	1127.84973	1449.45557	582.05664	1356.23218	1454.40186	537.04517	1203.71667	1372.99902	779.57196	1225.45862	1610.49829	648.33289	1383.85046	1701.77454	673.07782	1205.53040	1724.37720	668.74091	1053.85083	1776.38855	586.40649	984.68933	1796.50427	456.83386	938.54688	1810.99792	503.18317	902.98615	1845.47888	430.25797	879.79407	1296.60376	647.81915	1384.21057	1201.34363	724.48438	1187.96460	1199.77490	736.33704	1064.43384	1167.55701	728.98462	945.01459	1182.47998	668.09131	816.32727	1144.63013	712.71741	825.25201	1146.95508	690.32666	742.38940	1551.93835	592.21399	919.72748	1336.06995	574.56714	928.45477	1481.54980	774.12500	935.02460	1336.39697	760.44958	934.19501	1605.73376	688.23413	596.23914	1596.55273	731.88763	465.91809	1603.89612	862.35229	325.09991	1558.88977	986.56238	138.24602	1503.51721	1033.86853	135.99698	1555.95825	874.67767	36.73618	1272.17224	562.62610	603.50775	1303.37537	507.55005	457.88861	1295.89832	521.46576	282.68008	1340.80249	501.68362	75.91570	1391.29858	546.35864	35.86274	1345.48608	359.53674	44.74824	1416.55249	591.15778	1703.72437	-3101.83423	1973.17932	1023.41919	-3140.66504	2012.54797	1021.98529			 
54	0.530	1504.87622	581.76971	1663.91943	1392.50232	563.58807	1672.71045	1490.15479	691.91565	1606.54370	1371.09851	676.48285	1614.33679	1447.95679	718.95959	1422.96289	1437.05151	750.04437	1128.32739	1447.29565	572.06592	1357.11438	1452.50586	526.46606	1204.82397	1370.59546	769.29340	1225.92615	1608.18335	638.63574	1384.68823	1699.16150	664.76251	1206.29968	1721.70728	661.27698	1054.71118	1773.65283	579.66309	984.86420	1793.64124	450.67816	937.25549	1808.12329	497.31027	902.05487	1842.56970	424.53925	878.16858	1294.50452	637.87451	1384.46887	1199.15955	713.21173	1187.63574	1197.97632	724.57831	1064.07922	1166.03076	717.20276	944.77374	1181.06262	656.39703	815.99561	1143.09937	700.86365	824.88422	1145.48499	678.47491	741.95276	1549.90454	580.99603	920.23901	1334.43152	563.66412	929.59222	1480.62244	762.91284	934.94629	1335.46643	749.75061	935.53894	1605.24988	672.41278	595.81647	1597.22058	714.04889	465.07391	1604.87952	849.10242	328.71835	1560.46875	978.78278	145.55258	1504.77014	1025.22363	145.90540	1555.95105	873.93622	36.80040	1271.52930	552.90240	604.42163	1302.19226	498.55301	457.65717	1293.94434	514.70410	282.25458	1340.74231	500.48032	75.84215	1391.18848	545.63928	36.28357	1344.37488	358.76608	42.88249	1414.46069	580.37299	1704.70544	-3101.85767	1973.05688	1023.37885	-3140.81348	2012.52124	1021.95667			 
55	0.540	1502.77368	571.87769	1664.59314	1390.49048	553.19806	1673.44543	1487.57959	682.01349	1607.43262	1368.65173	666.08453	1615.34241	1445.56653	709.10376	1423.49463	1435.00342	739.64984	1128.95374	1445.11267	561.99817	1357.96106	1450.69885	515.97473	1206.02258	1368.37244	759.01483	1226.38916	1605.89685	628.98950	1385.68823	1696.42078	656.56964	1207.16663	1718.96851	653.96692	1055.79663	1770.91296	573.24078	985.18860	1790.64526	444.87860	935.69525	1805.21912	491.93387	901.07629	1839.63586	419.37207	876.41376	1292.31580	627.99591	1384.98706	1197.02710	701.78467	1187.59290	1196.14746	712.71271	1064.06213	1164.30408	705.09912	944.84900	1179.52393	644.31976	816.12958	1141.45264	688.68677	824.95190	1144.06934	666.48761	741.98627	1547.65454	569.75763	920.94513	1332.55884	553.11316	930.87488	1479.74634	751.77991	935.22784	1334.67957	739.37921	937.33600	1604.93433	655.82477	595.12823	1598.33655	695.11554	464.27487	1606.23218	834.64862	332.62238	1561.91577	969.36078	153.13721	1505.55249	1014.58636	156.07202	1555.24609	872.54358	36.46313	1270.40796	541.90741	605.57703	1301.05103	490.34027	457.09567	1292.05847	509.46289	281.16714	1340.57556	499.51047	75.49533	1390.90576	545.27484	36.54232	1344.37878	357.92941	41.66759	1412.67639	570.15619	1705.19153	-3101.92236	1973.10278	1023.29797	-3140.63110	2012.51611	1022.01733			 
